<?xml version="1.0" encoding="UTF-8" standalone="no"?>
<!-- Created with Inkscape (http://www.inkscape.org/) -->

<svg
   width="116.56364mm"
   height="76.793694mm"
   viewBox="0 0 116.56364 76.793694"
   version="1.1"
   id="svg1"
   xmlns:inkscape="http://www.inkscape.org/namespaces/inkscape"
   xmlns:sodipodi="http://sodipodi.sourceforge.net/DTD/sodipodi-0.dtd"
   xmlns="http://www.w3.org/2000/svg"
   xmlns:svg="http://www.w3.org/2000/svg">
  <sodipodi:namedview
     id="namedview1"
     pagecolor="#505050"
     bordercolor="#ffffff"
     borderopacity="1"
     inkscape:showpageshadow="0"
     inkscape:pageopacity="0"
     inkscape:pagecheckerboard="1"
     inkscape:deskcolor="#505050"
     inkscape:document-units="mm">
    <inkscape:page
       x="0"
       y="2.6119703e-20"
       width="116.56364"
       height="76.793694"
       id="page2"
       margin="0"
       bleed="0" />
  </sodipodi:namedview>
  <defs
     id="defs1">
    <inkscape:path-effect
       effect="fillet_chamfer"
       id="path-effect8"
       is_visible="true"
       lpeversion="1"
       nodesatellites_param="F,0,0,1,0,0,0,1 @ F,0,0,1,0,0,0,1 @ F,0,0,1,0,1.042305,0,1 @ F,0,0,1,0,1.9240457,0,1 @ F,0,0,1,0,2.8580934,0,1 @ F,0,0,1,0,0,0,1"
       radius="0"
       unit="px"
       method="auto"
       mode="F"
       chamfer_steps="1"
       flexible="false"
       use_knot_distance="true"
       apply_no_radius="true"
       apply_with_radius="true"
       only_selected="false"
       hide_knots="false" />
    <inkscape:path-effect
       effect="fillet_chamfer"
       id="path-effect7"
       is_visible="true"
       lpeversion="1"
       nodesatellites_param="F,0,0,1,0,1.6416053,0,1 @ F,0,0,1,0,0,0,1 @ F,0,0,1,0,0,0,1 @ F,0,0,1,0,0,0,1 @ F,0,0,1,0,2.2733223,0,1 @ F,0,0,1,0,0,0,1 @ F,0,0,1,0,0,0,1 @ F,0,0,1,0,5.1643812,0,1"
       radius="0"
       unit="px"
       method="auto"
       mode="F"
       chamfer_steps="1"
       flexible="false"
       use_knot_distance="true"
       apply_no_radius="true"
       apply_with_radius="true"
       only_selected="false"
       hide_knots="false" />
    <inkscape:path-effect
       effect="fillet_chamfer"
       id="path-effect6"
       is_visible="true"
       lpeversion="1"
       nodesatellites_param="F,0,0,1,0,1.0438133,0,1 @ F,0,0,1,0,0,0,1 @ F,0,0,1,0,0,0,1 @ F,0,0,1,0,0,0,1 @ F,0,0,1,0,0,0,1 @ F,0,0,1,0,0,0,1 @ F,0,0,1,0,0,0,1 @ F,0,0,1,0,0,0,1 @ F,0,0,1,0,0,0,1 @ F,0,0,1,0,0,0,1 @ F,0,0,1,0,0,0,1 @ F,0,0,1,0,0,0,1 @ F,0,0,1,0,1.6508744,0,1 @ F,0,0,1,0,1.5064988,0,1 @ F,0,0,1,0,0,0,1 @ F,0,0,1,0,0,0,1 @ F,0,0,1,0,0,0,1 @ F,0,0,1,0,1.3912521,0,1 @ F,0,0,1,0,1.8981512,0,1 @ F,0,0,1,0,0,0,1 @ F,0,0,1,0,0,0,1 @ F,0,0,1,0,0,0,1 @ F,0,0,1,0,0,0,1 @ F,0,0,1,0,1.7073569,0,1 @ F,0,0,1,0,0.97700594,0,1"
       radius="0"
       unit="px"
       method="auto"
       mode="F"
       chamfer_steps="1"
       flexible="false"
       use_knot_distance="true"
       apply_no_radius="true"
       apply_with_radius="true"
       only_selected="false"
       hide_knots="false" />
    <inkscape:path-effect
       effect="fillet_chamfer"
       id="path-effect5"
       is_visible="true"
       lpeversion="1"
       nodesatellites_param="F,0,0,1,0,1.4156077,0,1 @ F,0,0,1,0,1.4156077,0,1 @ F,0,0,1,0,1.8510708,0,1 @ F,0,0,1,0,2.3947697,0,1 @ F,0,0,1,0,0,0,1 @ F,0,0,1,0,0,0,1 @ F,0,0,1,0,3.1750287,0,1 @ F,0,0,1,0,2.6608234,0,1 @ F,0,0,1,0,0,0,1 @ F,0,0,1,0,0,0,1"
       radius="0"
       unit="px"
       method="auto"
       mode="F"
       chamfer_steps="1"
       flexible="false"
       use_knot_distance="true"
       apply_no_radius="true"
       apply_with_radius="true"
       only_selected="false"
       hide_knots="false" />
    <inkscape:path-effect
       effect="fillet_chamfer"
       id="path-effect3"
       is_visible="true"
       lpeversion="1"
       nodesatellites_param="F,0,0,1,0,1.35303,0,1 @ F,0,0,1,0,2.0762213,0,1 @ F,0,0,1,0,1.4108177,0,1 @ F,0,0,1,0,0,0,1 @ F,0,0,1,0,0,0,1 @ F,0,0,1,0,0,0,1 @ F,0,0,1,0,0,0,1 @ F,0,0,1,0,1.4108177,0,1 @ F,0,0,1,0,0,0,1 @ F,0,0,1,0,0,0,1 @ F,0,0,1,0,0,0,1 @ F,0,0,1,0,0,0,1 @ F,0,0,1,0,0,0,1"
       radius="0"
       unit="px"
       method="auto"
       mode="F"
       chamfer_steps="1"
       flexible="false"
       use_knot_distance="true"
       apply_no_radius="true"
       apply_with_radius="true"
       only_selected="false"
       hide_knots="false" />
  </defs>
  <g
     inkscape:label="Capa 1"
     inkscape:groupmode="layer"
     id="layer1"
     transform="translate(-32.357239,-80.605098)">
    <path
       style="fill:#000000;fill-opacity:1;stroke-width:0.264583"
       d="m 33.77149,96.72564 c -1.60078,3.35464 -2.20663,8.09254 0.147662,11.12414 3.424643,3.75395 26.759331,1.77418 26.759331,1.77418 0,0 1.361525,10.55395 -4.211081,15.35007 -5.412524,4.65834 -11.758797,-12.8287 -17.931057,-9.23722 -2.785342,1.62072 -7.098371,10.53528 -5.408933,13.27949 6.404151,10.40246 24.585102,14.86227 33.663931,6.6892 8.058839,-7.25484 2.62879,-23.14088 5.705336,-25.80986 3.476244,-4.66851 -0.960727,23.60248 -3.939398,29.47757 -4.745474,3.89137 -13.378698,-7.05068 -18.746107,-4.07524 -2.886907,1.60037 -5.047476,11.05937 -3.531873,13.99166 4.686875,9.06787 23.250083,10.41663 31.651032,4.6186 8.104647,-5.36986 4.561645,-39.7246 7.866331,-45.98562 0.404262,-0.76591 1.141826,-0.24413 1.043296,0.66228 -0.751355,6.91204 -3.51382,33.80013 -2.263869,44.64155 0.09522,0.82586 0.656226,2.03901 1.394472,2.40538 2.333821,1.15819 6.772634,1.23178 8.710852,0.60183 3.611652,-1.17384 3.652319,-5.14132 7.439725,-5.41976 2.81291,-0.2068 3.30744,4.65854 6.00857,5.47041 3.65125,1.09743 30.55284,-1.2693 37.65807,-4.62909 0.69273,-0.32757 1.6237,-1.17508 2.00771,-1.83877 1.78789,-3.08999 1.34345,-7.92117 -0.61278,-11.1027 -0.54794,-0.89114 -1.79902,-2.11185 -2.78065,-2.45291 -3.4697,-1.20552 -9.51775,0.004 -9.51775,0.004 0,0 -3.68271,-48.236362 -17.54349,-54.995435 -3.81272,-1.859236 -8.91997,0.461825 -12.22572,3.531875 -3.24367,2.824121 -2.9747,3.427158 -7.581017,2.27289 -14.853101,0.456887 -29.454329,-0.02965 -44.149045,0.843388 -0.940795,0.05589 -2.18546,0.692421 -2.558071,1.529887 -0.16127,0.362465 -0.299434,0.931354 -0.363393,1.898751 -0.03559,0.538282 -0.46872,1.040491 -1.003066,1.1155 -6.167738,0.865789 -10.882912,1.107159 -14.296256,2.827644 -0.513777,0.258967 -1.144558,0.916025 -1.392762,1.43617 z"
       id="path1"
       sodipodi:nodetypes="cccccccccccccccccccccccccc"
       inkscape:path-effect="#path-effect6"
       inkscape:original-d="m 34.257342,95.802105 c -1.943343,3.354514 -2.918077,8.725575 -0.33819,12.047675 3.424643,3.75395 26.759331,1.77418 26.759331,1.77418 0,0 1.361525,10.55395 -4.211081,15.35007 -5.412524,4.65834 -11.758797,-12.8287 -17.931057,-9.23722 -2.785342,1.62072 -7.098371,10.53528 -5.408933,13.27949 6.404151,10.40246 24.585102,14.86227 33.663931,6.6892 8.058839,-7.25484 2.62879,-23.14088 5.705336,-25.80986 3.476244,-4.66851 -0.960727,23.60248 -3.939398,29.47757 -4.745474,3.89137 -13.378698,-7.05068 -18.746107,-4.07524 -2.886907,1.60037 -5.047476,11.05937 -3.531873,13.99166 4.686875,9.06787 23.250083,10.41663 31.651032,4.6186 8.920684,-5.91054 3.730089,-46.93664 9.091698,-46.96414 0,0 -4.227666,36.76202 -2.22973,47.772 1.458562,2.00843 7.528489,2.2848 9.889114,1.51756 3.611652,-1.17384 3.652319,-5.14132 7.439725,-5.41976 2.81291,-0.2068 3.30744,4.65854 6.00857,5.47041 3.90686,1.17426 34.4334,-1.61766 38.84448,-5.34847 3.11662,-3.36191 2.26472,-10.45262 -0.95089,-13.71997 -2.61392,-2.65598 -11.13899,-0.95089 -11.13899,-0.95089 0,0 -3.68271,-48.236362 -17.54349,-54.995435 -3.81272,-1.859236 -8.91997,0.461825 -12.22572,3.531875 -3.24367,2.824121 -2.9747,3.427158 -7.581017,2.27289 -15.426766,0.474533 -30.581828,-0.06864 -45.852127,0.950762 -0.06405,1.313547 -1.201527,0.04199 -1.254439,4.297371 -7.224149,1.070081 -12.5391,1.181829 -16.170175,3.479672 z" />
    <path
       style="fill:#ffffff;fill-opacity:1;stroke-width:0.248584"
       d="m 34.699967,97.480729 c -1.119958,2.007459 -1.76739,5.163441 -0.94201,7.703171 0.352536,1.08478 1.733812,2.3945 2.83253,2.6826 5.488638,1.43921 19.653642,0.60053 24.169734,0.2853 0.776474,-0.0542 1.422331,0.52769 1.414561,1.30678 -0.03869,3.87909 -0.592627,14.59421 -5.445265,17.25382 -6.428696,3.52034 -13.406551,-12.85576 -17.770026,-9.22401 -2.544909,2.08517 -6.227747,8.66371 -4.625882,11.21851 2.766507,4.41227 8.120428,6.96615 13.558551,8.96995 0.135708,0.05 1.154335,-1.87744 2.36569,-2.94203 0.577776,-0.50777 1.865716,-0.75419 2.623086,-0.59072 2.881425,0.62194 6.689897,3.64729 6.957116,3.62838 2.887111,-0.20429 4.753084,-1.54381 6.824342,-3.37463 5.912127,-4.44879 1.963358,-23.66032 4.88043,-26.14508 2.675667,-0.71474 2.81465,0.52967 3.074716,-0.83411 -20.766079,-3.07617 -25.566101,1.21209 -24.50719,-14.03579 -2.170497,0.51103 -7.720535,0.242479 -13.395057,2.460943 -0.695597,0.271945 -1.651957,0.985598 -2.015326,1.636916 z"
       id="path1-8"
       sodipodi:nodetypes="ccccccsssccccc"
       inkscape:label="J1"
       inkscape:path-effect="#path-effect3"
       inkscape:original-d="m 35.470158,96.371462 c -1.87981,2.119019 -3.196307,7.547158 -0.75015,10.639958 3.140493,3.00794 27.445726,1.03645 27.445726,1.03645 0,0 0.519912,15.40013 -5.436217,18.66453 -6.428696,3.52034 -13.406551,-12.85576 -17.770026,-9.22401 -2.544909,2.08517 -6.227747,8.66371 -4.625882,11.21851 2.766507,4.41227 8.120428,6.96615 13.558551,8.96995 0.17995,0.0663 1.912338,-3.34433 3.587968,-3.6097 2.844256,-0.45045 8.044046,3.72754 8.357924,3.70533 2.887111,-0.20429 4.753084,-1.54381 6.824342,-3.37463 5.912127,-4.44879 1.963358,-23.66032 4.88043,-26.14508 2.675667,-0.71474 2.81465,0.52967 3.074716,-0.83411 -20.766079,-3.07617 -25.566101,1.21209 -24.50719,-14.03579 -2.329159,0.548386 -8.550002,0.199052 -14.640192,2.988592 z" />
    <path
       style="fill:#ffffff;fill-opacity:1;stroke-width:0.264583"
       d="m 51.871772,90.138088 c -0.787055,3.147853 -1.410861,8.997431 -0.118931,11.868742 0.318372,0.70759 1.366472,1.45948 2.118367,1.66294 4.040727,1.09345 14.682389,1.75777 19.780926,2.32283 1.014856,0.11248 1.769035,1.06714 1.68651,2.08612 -0.676911,8.35819 -2.111582,23.47949 -5.245021,31.26271 -0.493331,1.2254 -2.094695,2.30043 -3.416217,2.27815 -9.550447,-0.16099 -10.868319,-8.33466 -15.847423,-5.57448 -2.886907,1.60037 -4.979555,10.04056 -3.463952,12.97285 3.45401,6.63162 17.525518,9.2942 26.971289,5.60949 1.631503,-0.63643 3.729114,-2.53602 4.447158,-4.13108 4.483542,-9.95968 4.086145,-32.02745 4.748862,-39.88852 0.122996,-1.45897 0.732507,-4.24005 2.088651,-4.49154 0.32372,-0.06 0.774737,-0.13038 1.424274,-0.25412 1.566685,-8.799578 0.03572,-13.965692 5.085468,-17.469254 -11.250512,-0.187595 -28.494103,-0.438194 -38.438011,0.278627 -0.779715,0.05621 -1.63242,0.708505 -1.82195,1.466535 z"
       id="path3"
       sodipodi:nodetypes="ccccccccccc"
       inkscape:path-effect="#path-effect5"
       inkscape:original-d="m 52.282758,88.784312 c -1.057905,2.743657 -2.36176,12.056928 0.273722,14.374878 2.377223,1.58485 18.751587,2.37243 22.928708,3.07427 -0.665775,8.51519 -2.286746,28.03666 -6.417503,35.2686 -11.75744,1.29791 -12.870293,-8.4324 -18.237702,-5.45696 -2.886907,1.60037 -4.979555,10.04056 -3.463952,12.97285 3.822386,7.33889 20.64779,9.81699 29.817174,4.21107 7.104145,-9.01447 5.298149,-42.12025 6.792067,-45.23516 1.177275,-2.0658 0.244362,-1.59318 3.070993,-2.13168 1.566685,-8.799578 0.03572,-13.965692 5.085468,-17.469254 -11.803155,-0.19681 -30.202627,-0.462966 -39.848975,0.391386 z"
       inkscape:label="J2" />
    <path
       style="fill:#ffffff;fill-opacity:1;stroke-width:0.264583"
       d="m 87.375089,155.06585 c 2.015391,0.9858 5.01729,0.76912 7.048841,0.065 2.352858,-1.00055 2.920514,-5.19581 7.32123,-5.49447 4.66423,-0.0161 4.39611,5.1557 7.07795,5.35863 2.40994,0.88671 5.56429,1.018 8.26182,0.48548 1.23019,-0.24285 2.3335,-1.62833 2.47593,-2.8757 2.19278,-19.20428 -2.44265,-43.39396 -14.82719,-59.553433 -2.0334,-2.653206 -3.58512,-4.758594 -8.829685,-4.754446 -0.822426,0.001 -1.674792,0.160056 -2.494245,0.449119 -2.641035,0.931626 -4.103435,5.39388 -4.258585,8.24182 -1.066024,19.56801 -4.106349,40.36973 -3.193853,55.45894 0.05472,0.9048 0.609074,2.22353 1.417787,2.6191 z"
       id="path6"
       inkscape:label="A"
       sodipodi:nodetypes="ccccccccc"
       inkscape:path-effect="#path-effect7"
       inkscape:original-d="m 86.073968,154.08387 c 1.746987,2.04589 5.808041,1.928 8.349962,1.04694 2.352858,-1.00055 2.920514,-5.19581 7.32123,-5.49447 4.66423,-0.0161 4.39611,5.1557 7.07795,5.35863 3.10244,1.14151 7.43857,1.03108 10.44559,-0.13584 2.83948,-19.5327 -1.66068,-45.00923 -14.53503,-61.807813 -2.0334,-2.653206 -3.58512,-4.758594 -8.829685,-4.754446 -2.471829,0.0031 -5.214121,1.433393 -6.520383,3.531875 -0.75425,21.710024 -4.67158,45.759704 -3.309634,62.255124 z" />
    <path
       style="fill:#ffffff;fill-opacity:1;stroke-width:0.264583"
       d="m 102.64233,88.786514 c 2.17796,-2.445892 7.75643,-7.980427 12.14106,-7.091883 10.89674,0.66772 17.19674,34.185759 18.67677,54.629559 0.0416,0.57414 0.53901,1.0517 1.11381,1.02307 2.88367,-0.14364 6.36192,-0.98173 8.82617,-0.0652 0.98747,0.36726 2.36652,1.51105 2.93156,2.39992 1.45631,2.29092 1.93642,6.37916 0.60953,9.22679 -0.65915,1.41461 -2.9993,2.5745 -4.517,3.00822 -7.4595,2.13172 -13.38874,3.1435 -21.3498,2.96689 0,0 5.13251,-37.95689 -18.4321,-66.097326 z"
       id="path7"
       sodipodi:nodetypes="ccccccc"
       inkscape:path-effect="#path-effect8"
       inkscape:original-d="m 102.64233,88.786514 c 2.17796,-2.445892 7.75643,-7.980427 12.14106,-7.091883 11.08357,0.679169 17.41142,35.344799 18.74865,55.669369 3.713,0.0906 8.91483,-1.69021 11.47518,0.94579 2.99824,1.80015 4.12343,9.98792 0.15773,12.79664 -8.81462,2.68395 -15.17985,3.97509 -24.09052,3.77741 0,0 5.13251,-37.95689 -18.4321,-66.097326 z"
       inkscape:label="L" />
    <path
       style="fill:#000000;fill-opacity:1;stroke-width:0.198237"
       d="m 100.10571,107.6769 c 0.7085,1.60002 0.20473,0.57112 0.93769,2.42738 0.54599,3.47433 1.54777,19.63245 1.03692,23.87568 -1.08235,1.01229 -1.34413,0.88785 -2.04489,0.0804 -0.601362,-4.24701 -0.685955,-18.47104 0.0703,-26.38325 z"
       id="path8"
       sodipodi:nodetypes="cccccc"
       inkscape:label="Hueco_A" />
  </g>
</svg>
